<svg xmlns="http://www.w3.org/2000/svg" id="Camada_2" data-name="Camada 2" viewBox="0 0 341.01 93.48"><defs><style>      .cls-1 {        fill: #b28b46;      }      .cls-1, .cls-2 {        stroke-width: 0px;      }      .cls-2 {        fill: #182a3f;      }    </style></defs><g id="Camada_1-2" data-name="Camada 1"><g><path class="cls-2" d="m341.01,37.07v.45c0,.72-.53,1.31-1.24,1.39-2.37.27-4.26,1.22-5.61,2.83-1.62,1.92-2.44,4.74-2.44,8.35v12.71c0,.8-.65,1.45-1.44,1.45h-.22c-.8,0-1.45-.65-1.45-1.45v-12.71c0-4.53,1.12-8.11,3.32-10.65,1.9-2.2,4.38-3.42,7.56-3.74.04-.01.09-.01.14-.01.34,0,.67.13.93.36.29.26.45.63.45,1.02Z"></path><path class="cls-2" d="m215.13,44.33c0,3.07-.45,5.86-1.32,8.29-.88,2.43-2.15,4.54-3.78,6.26-1.63,1.72-3.64,3.07-5.96,3.98-2.33.92-4.99,1.39-7.91,1.39h-9.14c-.42,0-.78-.16-1.1-.5-.31-.33-.46-.69-.46-1.11v-15.88c0-.8.63-1.47,1.4-1.48.04,0,.07-.01.1-.01.06-.01.12-.01.17-.01.35,0,.68.12.94.35.32.28.5.68.5,1.11v14.23s.03.08.08.08h7.51c5.04,0,8.98-1.46,11.72-4.35,2.75-2.89,4.14-7.05,4.14-12.35s-1.35-9.59-4.01-12.43c-2.66-2.83-6.54-4.26-11.55-4.26h-11v-1.61c0-.35.05-.79.4-1.14.36-.37.81-.42,1.16-.42h9.44c2.93,0,5.59.46,7.89,1.36,2.3.9,4.27,2.21,5.86,3.91,1.58,1.68,2.81,3.78,3.65,6.22.84,2.45,1.27,5.27,1.27,8.37Z"></path><path class="cls-2" d="m158.15,39.13c-2.37-2.55-5.76-3.84-10.06-3.84s-7.69,1.29-10.06,3.84c-2.36,2.54-3.56,6.12-3.56,10.64s1.19,8.15,3.55,10.67c2.38,2.53,5.77,3.81,10.07,3.81s7.69-1.28,10.06-3.81c2.36-2.52,3.56-6.11,3.56-10.67s-1.2-8.1-3.56-10.64Zm-2.3,19.09c-1.78,1.86-4.39,2.81-7.76,2.81s-6.03-.96-7.81-2.87c-1.79-1.91-2.7-4.73-2.7-8.39s.91-6.48,2.7-8.39c1.78-1.9,4.41-2.87,7.81-2.87s6.03.97,7.81,2.87c1.79,1.91,2.7,4.74,2.7,8.39s-.91,6.48-2.7,8.39l-.05.06Z"></path><path class="cls-2" d="m243.07,39.13c-2.37-2.55-5.76-3.84-10.07-3.84s-7.69,1.29-10.06,3.84c-2.36,2.54-3.56,6.12-3.56,10.64s1.2,8.15,3.56,10.67c2.38,2.53,5.76,3.81,10.06,3.81s7.69-1.28,10.07-3.81c2.36-2.52,3.56-6.11,3.56-10.67s-1.2-8.1-3.56-10.64Zm-10.07,21.9c-3.4,0-6.03-.96-7.81-2.87-1.79-1.91-2.7-4.73-2.7-8.39s.91-6.48,2.7-8.39c1.79-1.9,4.42-2.87,7.81-2.87s6.03.97,7.82,2.87c1.79,1.91,2.7,4.74,2.7,8.39s-.91,6.48-2.7,8.4c-1.79,1.9-4.41,2.86-7.82,2.86Z"></path><path class="cls-2" d="m274.6,59.15c-.31.46-.66.89-1.03,1.29-2.38,2.53-5.76,3.81-10.07,3.81s-7.69-1.28-10.06-3.81c-2.36-2.52-3.56-6.11-3.56-10.67s1.2-8.1,3.56-10.64c2.37-2.55,5.76-3.84,10.06-3.84s7.69,1.29,10.07,3.84c.36.39.7.81,1.01,1.26.32.46.36,1.05.09,1.56-.26.51-.79.83-1.36.83h-.13c-.49,0-.95-.24-1.23-.63-.2-.28-.42-.54-.64-.77-1.78-1.9-4.41-2.87-7.81-2.87s-6.03.97-7.81,2.87c-1.79,1.91-2.7,4.74-2.7,8.39s.91,6.48,2.7,8.39c1.78,1.91,4.41,2.87,7.81,2.87s6.03-.96,7.81-2.87c.23-.24.45-.5.64-.77.28-.39.74-.62,1.23-.62h.15c.57,0,1.1.31,1.36.82.27.51.24,1.09-.09,1.56Z"></path><path class="cls-2" d="m318.86,39.13c-2.37-2.55-5.75-3.84-10.06-3.84s-7.69,1.29-10.06,3.84c-2.36,2.53-3.56,6.12-3.56,10.64s1.2,8.15,3.56,10.67c2.37,2.53,5.76,3.81,10.06,3.81s7.69-1.28,10.07-3.81c2.36-2.52,3.55-6.11,3.55-10.67s-1.19-8.11-3.56-10.64Zm-2.25,19.04c-1.78,1.9-4.41,2.86-7.81,2.86s-6.03-.96-7.81-2.87c-1.79-1.91-2.7-4.73-2.7-8.39s.91-6.48,2.7-8.39c1.78-1.9,4.41-2.87,7.81-2.87s6.03.97,7.81,2.87c1.8,1.91,2.71,4.74,2.71,8.39s-.89,6.42-2.64,8.33l-.07.07Z"></path><path class="cls-2" d="m291.85,60.89c.29.3.44.7.44,1.2,0,.43-.13.81-.4,1.14-.3.37-.69.57-1.13.57h-1.15c-2.53,0-4.51-.7-5.88-2.07-1.37-1.38-2.06-3.57-2.06-6.51v-31.04c0-.49.17-.92.49-1.22.3-.28.67-.43,1.06-.43s.78.15,1.08.44c.32.3.49.72.49,1.21v11.45h6.02c.42,0,.81.18,1.11.52.28.32.42.72.42,1.2,0,.44-.14.82-.42,1.14-.3.34-.69.51-1.11.51h-6.02v16.22c0,1.97.36,3.35,1.06,4.1.68.74,1.95,1.11,3.76,1.11h1.15c.41,0,.79.16,1.09.46Z"></path><path class="cls-2" d="m137.81,24.46v.25c0,.38-.17.74-.47.98l-.04.05-.06.03c-.21.14-.45.21-.7.21h-1.61c-.31.01-.54.01-.6.01h-9.01c-2.57-.01-4.57.45-5.62,1.28-1,.8-1.51,2.22-1.51,4.23v12.41h8.09c.4,0,.75.13,1.05.39.3.27.46.63.46,1.04,0,.38-.16.72-.46.99-.3.26-.65.39-1.05.39h-8.09v1.67s.01,2.42.01,2.42h-.01v11.45c0,.82-.58,1.52-1.36,1.63-.08.01-.18.01-.28.01-.09,0-.17,0-.25-.01-.75-.11-1.32-.8-1.32-1.62v-30.77c0-2.89.9-5.03,2.69-6.36,1.74-1.3,4.28-1.95,7.54-1.95h11.33c.25,0,.49.07.7.21l.06.03.04.05c.3.24.47.6.47.98Z"></path><path class="cls-2" d="m180.16,36.88v.45c0,.71-.53,1.31-1.23,1.38-2.38.27-4.27,1.22-5.62,2.83-1.62,1.93-2.44,4.74-2.44,8.35v12.72c0,.79-.65,1.44-1.44,1.44h-.23c-.79,0-1.44-.65-1.44-1.44v-12.72c0-4.53,1.12-8.11,3.31-10.64,1.91-2.2,4.38-3.43,7.57-3.75.04,0,.09-.01.13-.01.35,0,.68.13.94.36.29.26.45.64.45,1.03Z"></path><g><path class="cls-1" d="m140.09,93.44c-.84,0-1.62-.16-2.33-.47-.71-.31-1.28-.82-1.7-1.51-.42-.7-.63-1.62-.63-2.76v-6.54c0-1.14.21-2.06.64-2.76.43-.7,1-1.2,1.71-1.51.71-.31,1.49-.47,2.33-.47.99,0,1.83.17,2.52.5.7.33,1.23.79,1.61,1.36.38.57.56,1.21.56,1.92,0,.41-.08.67-.23.8-.15.13-.38.2-.68.2s-.51-.06-.66-.17c-.15-.12-.24-.27-.25-.46-.01-.22-.05-.47-.12-.75-.07-.28-.2-.56-.39-.83-.2-.27-.48-.49-.85-.66-.37-.17-.86-.26-1.47-.26-.93,0-1.64.25-2.14.75-.5.5-.75,1.28-.75,2.34v6.54c0,1.06.25,1.84.76,2.34.51.5,1.24.75,2.19.75.61,0,1.09-.09,1.45-.26.35-.17.62-.39.79-.65.17-.26.3-.54.37-.84.07-.3.12-.58.15-.84.01-.22.1-.38.26-.48.16-.1.38-.15.65-.15.3,0,.53.07.68.21.15.14.23.41.23.82,0,.71-.19,1.36-.58,1.95-.38.59-.93,1.05-1.63,1.39-.7.34-1.54.51-2.51.51"></path><path class="cls-1" d="m151.33,91.85c.46,0,.88-.12,1.25-.37.37-.25.67-.57.9-.97.23-.4.35-.82.35-1.25v-2.22c0-.42-.11-.83-.34-1.22s-.53-.71-.9-.96c-.38-.25-.8-.37-1.26-.37s-.88.12-1.26.37c-.38.25-.67.56-.89.96-.22.39-.33.8-.33,1.22v2.22c0,.43.11.85.33,1.25.22.4.51.72.89.97.38.25.8.37,1.26.37m0,1.63c-.77,0-1.48-.2-2.13-.6-.65-.4-1.17-.92-1.57-1.55-.39-.64-.59-1.33-.59-2.06v-2.22c0-.74.19-1.42.58-2.05.38-.63.9-1.14,1.55-1.53.65-.39,1.37-.59,2.15-.59s1.48.19,2.13.58c.65.38,1.18.89,1.58,1.51.4.62.6,1.32.6,2.09v2.22c0,.72-.2,1.41-.6,2.05-.4.65-.92,1.17-1.58,1.56-.65.4-1.36.6-2.13.6"></path><path class="cls-1" d="m159.24,93.31c-.26,0-.47-.07-.64-.21-.17-.14-.25-.29-.25-.45v-9.02c0-.19.08-.34.25-.46.17-.12.38-.17.64-.17.23,0,.43.06.59.17.16.12.24.27.24.46v.89c.23-.42.59-.8,1.09-1.14.49-.34,1.1-.51,1.83-.51s1.33.19,1.91.58c.58.38,1.04.89,1.39,1.51.35.62.52,1.32.52,2.09v5.61c0,.22-.09.38-.28.49-.19.11-.4.16-.63.16-.22,0-.42-.05-.61-.16-.19-.11-.28-.27-.28-.49v-5.61c0-.42-.11-.83-.34-1.22-.22-.39-.53-.71-.9-.96-.38-.25-.79-.37-1.24-.37-.39,0-.77.11-1.13.32-.36.21-.66.5-.89.87-.23.37-.35.82-.35,1.36v5.61c0,.16-.09.31-.27.45-.18.14-.4.21-.64.21"></path><path class="cls-1" d="m173.36,93.31c-1.17,0-2.07-.26-2.68-.78-.62-.52-.92-1.35-.92-2.5v-11.19c0-.19.09-.34.28-.46.19-.12.39-.17.61-.17.23,0,.44.06.63.17.19.12.28.27.28.46v4.17h2.74c.17,0,.31.07.4.22.09.14.14.31.14.5s-.05.35-.14.49c-.09.14-.23.21-.4.21h-2.74v5.61c0,.62.13,1.06.4,1.32.27.25.74.38,1.4.38h.67c.26,0,.46.08.59.24.13.16.2.34.2.54s-.07.39-.2.55c-.13.17-.33.25-.59.25h-.67Z"></path><path class="cls-1" d="m179.88,92.03c.42,0,.83-.12,1.23-.35.4-.23.73-.52,1-.87.27-.35.4-.68.4-1v-1.13h-.76c-.61,0-1.18.04-1.73.11-.54.07-.98.23-1.32.47-.33.24-.5.62-.5,1.14,0,.56.16.98.48,1.24.32.26.72.39,1.2.39m-.56,1.46c-.81,0-1.5-.24-2.08-.71-.57-.47-.86-1.2-.86-2.18,0-.8.22-1.42.65-1.86.43-.44,1.03-.75,1.79-.91.76-.17,1.64-.25,2.64-.25h1.04v-.46c0-.43-.08-.86-.24-1.27-.16-.41-.41-.75-.75-1.02-.34-.27-.81-.4-1.4-.4-.51,0-.91.05-1.21.15-.3.1-.53.21-.71.32-.17.11-.33.16-.46.16-.22,0-.38-.1-.5-.32-.12-.21-.17-.41-.17-.6,0-.23.16-.44.48-.63.32-.19.72-.34,1.2-.46.48-.12.95-.17,1.41-.17,1.01,0,1.83.2,2.43.61.61.41,1.05.93,1.32,1.56.27.64.4,1.32.4,2.04v5.56c0,.17-.08.33-.25.46-.17.13-.38.2-.64.2-.23,0-.43-.07-.59-.2-.16-.13-.24-.28-.24-.46v-.87c-.38.43-.83.83-1.37,1.17-.54.35-1.17.52-1.91.52"></path><path class="cls-1" d="m191.6,91.85c.45,0,.86-.12,1.24-.37.38-.25.68-.57.9-.98.22-.41.34-.82.34-1.24v-2.22c0-.42-.11-.83-.34-1.22s-.53-.71-.9-.96c-.38-.25-.8-.37-1.26-.37-.39,0-.78.11-1.15.32-.38.21-.68.5-.92.87-.24.37-.36.82-.36,1.36v2.8c0,.19.11.44.33.76.22.32.51.6.89.86.38.25.79.38,1.24.38m.43,1.63c-.67,0-1.27-.17-1.81-.51-.54-.34-.93-.74-1.16-1.18v.87c0,.16-.08.31-.24.45-.16.14-.36.21-.61.21s-.45-.07-.62-.21c-.17-.14-.25-.29-.25-.45v-15.24c0-.19.08-.34.25-.46.17-.12.37-.17.62-.17.26,0,.48.06.66.17.18.12.27.27.27.46v7.11c.23-.42.59-.8,1.08-1.14.49-.34,1.08-.51,1.77-.51s1.36.19,1.95.58c.59.38,1.06.89,1.41,1.51.35.62.53,1.32.53,2.09v2.22c0,.72-.18,1.41-.53,2.05-.36.65-.82,1.17-1.4,1.56-.58.4-1.22.6-1.91.6"></path><path class="cls-1" d="m199.49,93.31c-.26,0-.47-.07-.64-.21-.17-.14-.25-.29-.25-.45v-9.02c0-.19.08-.34.25-.46.17-.12.38-.17.64-.17.25,0,.46.06.64.17.18.12.27.27.27.46v9.02c0,.16-.09.31-.27.45-.18.14-.4.21-.64.21m0-13.13c-.3,0-.57-.11-.79-.32-.22-.21-.34-.45-.34-.73s.11-.51.34-.72c.22-.2.49-.3.79-.3s.58.1.79.3c.21.2.32.44.32.72s-.11.52-.32.73c-.21.21-.47.32-.79.32"></path><path class="cls-1" d="m204.57,93.31c-.26,0-.47-.07-.64-.21-.17-.14-.25-.29-.25-.45v-15.24c0-.19.08-.34.25-.46.17-.12.38-.17.64-.17.25,0,.46.06.64.17.18.12.27.27.27.46v15.24c0,.16-.09.31-.27.45-.18.14-.4.21-.64.21"></path><path class="cls-1" d="m209.68,93.31c-.26,0-.47-.07-.64-.21-.17-.14-.25-.29-.25-.45v-9.02c0-.19.08-.34.25-.46.17-.12.38-.17.64-.17.25,0,.46.06.64.17.18.12.27.27.27.46v9.02c0,.16-.09.31-.27.45-.18.14-.4.21-.64.21m0-13.13c-.3,0-.57-.11-.79-.32-.22-.21-.34-.45-.34-.73s.11-.51.34-.72c.22-.2.49-.3.79-.3s.58.1.79.3c.21.2.32.44.32.72s-.11.52-.32.73c-.21.21-.47.32-.79.32"></path><path class="cls-1" d="m217.57,91.85c.46,0,.88-.13,1.25-.38s.66-.54.88-.86c.22-.32.33-.57.33-.76v-2.8c0-.54-.12-.99-.36-1.36-.24-.37-.55-.66-.92-.87-.38-.21-.76-.32-1.15-.32-.46,0-.88.12-1.26.37-.38.25-.68.56-.9.96s-.34.8-.34,1.22v2.22c0,.42.11.83.34,1.24.22.41.53.73.9.98.38.25.79.37,1.24.37m-.43,1.63c-.68,0-1.31-.2-1.9-.6-.59-.4-1.06-.92-1.41-1.56-.36-.64-.53-1.33-.53-2.05v-2.22c0-.77.18-1.46.53-2.09.35-.62.83-1.13,1.41-1.51.59-.38,1.24-.58,1.95-.58s1.29.17,1.77.51c.49.34.84.72,1.08,1.14v-7.11c0-.19.09-.34.27-.46.18-.12.4-.17.66-.17s.47.06.63.17c.16.12.24.27.24.46v15.24c0,.16-.08.31-.24.45-.16.14-.37.21-.63.21-.23,0-.43-.07-.6-.21-.17-.14-.25-.29-.25-.45v-.87c-.22.45-.6.84-1.15,1.18-.55.34-1.16.51-1.83.51"></path><path class="cls-1" d="m227.79,92.03c.42,0,.83-.12,1.23-.35.4-.23.73-.52,1-.87.27-.35.4-.68.4-1v-1.13h-.76c-.61,0-1.18.04-1.73.11-.54.07-.98.23-1.32.47-.33.24-.5.62-.5,1.14,0,.56.16.98.48,1.24.32.26.72.39,1.2.39m-.57,1.46c-.81,0-1.5-.24-2.08-.71-.57-.47-.86-1.2-.86-2.18,0-.8.22-1.42.65-1.86.43-.44,1.03-.75,1.79-.91.76-.17,1.64-.25,2.64-.25h1.04v-.46c0-.43-.08-.86-.24-1.27-.16-.41-.41-.75-.75-1.02-.34-.27-.81-.4-1.4-.4-.51,0-.91.05-1.21.15-.3.1-.53.21-.71.32-.17.11-.33.16-.46.16-.22,0-.38-.1-.5-.32-.12-.21-.17-.41-.17-.6,0-.23.16-.44.48-.63.32-.19.72-.34,1.2-.46.48-.12.95-.17,1.41-.17,1.01,0,1.83.2,2.43.61.61.41,1.05.93,1.32,1.56.27.64.4,1.32.4,2.04v5.56c0,.17-.08.33-.25.46-.17.13-.38.2-.64.2-.23,0-.43-.07-.59-.2-.16-.13-.24-.28-.24-.46v-.87c-.38.43-.83.83-1.37,1.17-.54.35-1.17.52-1.91.52"></path><path class="cls-1" d="m239.11,91.85c.46,0,.88-.13,1.25-.38s.66-.54.88-.86c.22-.32.33-.57.33-.76v-2.8c0-.54-.12-.99-.36-1.36-.24-.37-.55-.66-.92-.87-.38-.21-.76-.32-1.15-.32-.46,0-.88.12-1.26.37-.38.25-.68.56-.9.96-.22.39-.34.8-.34,1.22v2.22c0,.42.11.83.34,1.24.22.41.53.73.9.98.38.25.79.37,1.24.37m-.43,1.63c-.68,0-1.31-.2-1.9-.6-.59-.4-1.06-.92-1.41-1.56-.36-.64-.53-1.33-.53-2.05v-2.22c0-.77.18-1.46.53-2.09.35-.62.83-1.13,1.41-1.51.59-.38,1.23-.58,1.95-.58s1.29.17,1.77.51c.49.34.84.72,1.08,1.14v-7.11c0-.19.09-.34.27-.46.18-.12.4-.17.66-.17s.47.06.63.17c.16.12.24.27.24.46v15.24c0,.16-.08.31-.24.45-.16.14-.37.21-.63.21-.23,0-.43-.07-.6-.21-.17-.14-.25-.29-.25-.45v-.87c-.22.45-.6.84-1.15,1.18-.55.34-1.16.51-1.83.51"></path><path class="cls-1" d="m247.91,87.46h4.02c.39,0,.65-.05.77-.14.12-.09.18-.28.18-.55,0-.43-.11-.84-.32-1.21-.21-.37-.5-.67-.88-.9-.38-.23-.8-.35-1.28-.35-.45,0-.86.11-1.24.32-.38.21-.68.5-.91.86-.23.36-.35.76-.35,1.2v.78Zm3.04,6.02c-.94,0-1.78-.18-2.5-.53-.72-.36-1.3-.85-1.72-1.48-.42-.63-.63-1.37-.63-2.21v-2.28c0-.74.2-1.42.6-2.04.4-.62.92-1.12,1.58-1.5.65-.38,1.37-.56,2.15-.56s1.45.17,2.08.52c.63.35,1.14.82,1.52,1.41.38.59.58,1.28.58,2.06,0,.58-.09,1-.28,1.25-.19.25-.43.41-.72.47-.29.06-.59.09-.91.09h-4.78v.65c0,.81.29,1.45.87,1.92.58.47,1.33.71,2.24.71.54,0,.96-.07,1.28-.22.32-.14.58-.29.78-.42.2-.14.38-.21.54-.21s.29.05.4.14c.11.09.19.21.25.34.06.13.09.25.09.35,0,.19-.14.4-.41.64-.28.24-.67.45-1.18.63-.51.18-1.12.27-1.81.27"></path><path class="cls-1" d="m263.21,93.31c-.22,0-.42-.05-.62-.16-.2-.11-.29-.27-.29-.49v-14.34c0-.33.1-.56.29-.7.2-.13.4-.2.62-.2.23,0,.43.04.6.13.17.09.32.21.46.38.14.17.27.38.4.64l3.43,6.54,3.43-6.54c.14-.26.29-.47.42-.64.14-.17.29-.29.46-.38.17-.09.36-.13.58-.13.25,0,.46.07.64.2.18.13.27.36.27.7v14.34c0,.22-.09.38-.28.49-.19.11-.4.16-.63.16s-.44-.05-.63-.16c-.19-.11-.28-.27-.28-.49v-11.41l-3.3,6.17c-.1.17-.21.3-.33.38-.12.08-.24.12-.37.12-.1,0-.21-.04-.34-.11-.12-.07-.24-.2-.34-.39l-3.28-6.26v11.5c0,.22-.09.38-.28.49-.19.11-.4.16-.63.16"></path><path class="cls-1" d="m280.27,80.62c-.17,0-.33-.08-.46-.24-.13-.16-.2-.33-.2-.5,0-.23.09-.39.28-.48l2.54-1.35c.09-.03.16-.04.22-.04.19,0,.34.08.45.23.11.15.16.32.16.51,0,.23-.1.41-.3.52l-2.46,1.26s-.08.03-.12.05c-.04.02-.08.03-.12.03m-1.65,6.85h4.02c.39,0,.65-.05.77-.14.12-.09.18-.28.18-.55,0-.43-.11-.84-.32-1.21-.21-.37-.5-.67-.88-.9-.38-.23-.8-.35-1.28-.35-.45,0-.86.11-1.24.32-.38.21-.68.5-.91.86-.23.36-.35.76-.35,1.2v.78Zm3.04,6.02c-.94,0-1.78-.18-2.5-.53-.72-.36-1.3-.85-1.72-1.48-.42-.63-.63-1.37-.63-2.21v-2.28c0-.74.2-1.42.6-2.04.4-.62.92-1.12,1.58-1.5.65-.38,1.37-.56,2.15-.56s1.45.17,2.08.52c.63.35,1.14.82,1.52,1.41.38.59.58,1.28.58,2.06,0,.58-.09,1-.28,1.25-.19.25-.43.41-.72.47-.29.06-.59.09-.91.09h-4.78v.65c0,.81.29,1.45.87,1.92.58.47,1.33.71,2.24.71.54,0,.96-.07,1.28-.22.32-.14.58-.29.78-.42.2-.14.38-.21.54-.21s.29.05.4.14c.11.09.19.21.25.34.06.13.09.25.09.35,0,.19-.14.4-.41.64-.28.24-.67.45-1.18.63-.51.18-1.12.27-1.81.27"></path><path class="cls-1" d="m291.75,91.85c.46,0,.88-.13,1.25-.38.37-.25.66-.54.88-.86.22-.32.33-.57.33-.76v-2.8c0-.54-.12-.99-.36-1.36-.24-.37-.55-.66-.92-.87-.38-.21-.76-.32-1.15-.32-.46,0-.88.12-1.26.37-.38.25-.68.56-.9.96-.22.39-.34.8-.34,1.22v2.22c0,.42.11.83.34,1.24.22.41.53.73.9.98.38.25.79.37,1.24.37m-.43,1.63c-.68,0-1.31-.2-1.9-.6-.59-.4-1.06-.92-1.41-1.56-.36-.64-.53-1.33-.53-2.05v-2.22c0-.77.18-1.46.53-2.09.35-.62.83-1.13,1.41-1.51.59-.38,1.24-.58,1.95-.58s1.29.17,1.77.51c.49.34.84.72,1.08,1.14v-7.11c0-.19.09-.34.27-.46.18-.12.4-.17.66-.17s.47.06.63.17c.16.12.24.27.24.46v15.24c0,.16-.08.31-.24.45-.16.14-.37.21-.63.21-.23,0-.43-.07-.6-.21-.17-.14-.25-.29-.25-.45v-.87c-.22.45-.6.84-1.15,1.18-.55.34-1.16.51-1.83.51"></path><path class="cls-1" d="m300.03,93.31c-.26,0-.47-.07-.64-.21-.17-.14-.25-.29-.25-.45v-9.02c0-.19.08-.34.25-.46.17-.12.38-.17.64-.17.25,0,.46.06.64.17.18.12.27.27.27.46v9.02c0,.16-.09.31-.27.45-.18.14-.4.21-.64.21m0-13.13c-.3,0-.57-.11-.79-.32-.22-.21-.34-.45-.34-.73s.11-.51.34-.72c.22-.2.49-.3.79-.3s.58.1.79.3c.21.2.32.44.32.72s-.11.52-.32.73c-.21.21-.47.32-.79.32"></path><path class="cls-1" d="m308.03,93.48c-1,0-1.82-.19-2.47-.56-.65-.38-1.12-.88-1.43-1.51-.31-.63-.47-1.34-.47-2.14v-2.17c0-.78.16-1.49.47-2.13.31-.64.79-1.14,1.43-1.52.64-.38,1.46-.56,2.45-.56.64,0,1.2.08,1.67.24.48.16.85.36,1.11.59.26.23.39.46.39.67,0,.12-.03.24-.1.38-.07.14-.15.26-.26.36-.11.1-.24.15-.38.15s-.3-.07-.47-.2c-.17-.13-.39-.26-.67-.38-.28-.12-.68-.18-1.18-.18-.88,0-1.55.23-1.99.7-.44.46-.66,1.09-.66,1.89v2.17c0,.8.22,1.43.66,1.89.44.46,1.11.7,2.01.7.52,0,.93-.07,1.22-.21.29-.14.52-.27.68-.39.17-.12.33-.18.49-.18s.3.05.41.14c.12.09.21.21.27.34.07.13.1.26.1.39,0,.22-.14.45-.41.68-.28.24-.66.44-1.15.61-.49.17-1.06.25-1.72.25"></path><path class="cls-1" d="m316.48,92.03c.42,0,.83-.12,1.23-.35.4-.23.73-.52,1-.87.27-.35.4-.68.4-1v-1.13h-.76c-.61,0-1.18.04-1.73.11-.54.07-.98.23-1.32.47-.33.24-.5.62-.5,1.14,0,.56.16.98.48,1.24.32.26.72.39,1.2.39m-.57,1.46c-.81,0-1.5-.24-2.08-.71-.57-.47-.86-1.2-.86-2.18,0-.8.22-1.42.65-1.86.43-.44,1.03-.75,1.79-.91.76-.17,1.64-.25,2.64-.25h1.04v-.46c0-.43-.08-.86-.24-1.27-.16-.41-.41-.75-.75-1.02-.34-.27-.81-.4-1.4-.4-.51,0-.91.05-1.21.15-.3.1-.53.21-.71.32-.17.11-.33.16-.46.16-.22,0-.38-.1-.5-.32-.12-.21-.17-.41-.17-.6,0-.23.16-.44.48-.63.32-.19.72-.34,1.2-.46.48-.12.95-.17,1.41-.17,1.01,0,1.83.2,2.43.61.61.41,1.05.93,1.31,1.56.27.64.4,1.32.4,2.04v5.56c0,.17-.08.33-.25.46-.17.13-.38.2-.64.2-.23,0-.43-.07-.59-.2-.16-.13-.24-.28-.24-.46v-.87c-.38.43-.83.83-1.37,1.17-.54.35-1.17.52-1.91.52"></path><path class="cls-1" d="m140.09,93.44c-.84,0-1.62-.16-2.33-.47-.71-.31-1.28-.82-1.7-1.51-.42-.7-.63-1.62-.63-2.76v-6.54c0-1.14.21-2.06.64-2.76.43-.7,1-1.2,1.71-1.51.71-.31,1.49-.47,2.33-.47.99,0,1.83.17,2.52.5.7.33,1.23.79,1.61,1.36.38.57.56,1.21.56,1.92,0,.41-.08.67-.23.8-.15.13-.38.2-.68.2s-.51-.06-.66-.17c-.15-.12-.24-.27-.25-.46-.01-.22-.05-.47-.12-.75-.07-.28-.2-.56-.39-.83-.2-.27-.48-.49-.85-.66-.37-.17-.86-.26-1.47-.26-.93,0-1.64.25-2.14.75-.5.5-.75,1.28-.75,2.34v6.54c0,1.06.25,1.84.76,2.34.51.5,1.24.75,2.19.75.61,0,1.09-.09,1.45-.26.35-.17.62-.39.79-.65.17-.26.3-.54.37-.84.07-.3.12-.58.15-.84.01-.22.1-.38.26-.48.16-.1.38-.15.65-.15.3,0,.53.07.68.21.15.14.23.41.23.82,0,.71-.19,1.36-.58,1.95-.38.59-.93,1.05-1.63,1.39-.7.34-1.54.51-2.51.51"></path><path class="cls-1" d="m151.33,91.85c.46,0,.88-.12,1.25-.37.37-.25.67-.57.9-.97.23-.4.35-.82.35-1.25v-2.22c0-.42-.11-.83-.34-1.22s-.53-.71-.9-.96c-.38-.25-.8-.37-1.26-.37s-.88.12-1.26.37c-.38.25-.67.56-.89.96-.22.39-.33.8-.33,1.22v2.22c0,.43.11.85.33,1.25.22.4.51.72.89.97.38.25.8.37,1.26.37m0,1.63c-.77,0-1.48-.2-2.13-.6-.65-.4-1.17-.92-1.57-1.55-.39-.64-.59-1.33-.59-2.06v-2.22c0-.74.19-1.42.58-2.05.38-.63.9-1.14,1.55-1.53.65-.39,1.37-.59,2.15-.59s1.48.19,2.13.58c.65.38,1.18.89,1.58,1.51.4.62.6,1.32.6,2.09v2.22c0,.72-.2,1.41-.6,2.05-.4.65-.92,1.17-1.58,1.56-.65.4-1.36.6-2.13.6"></path><path class="cls-1" d="m159.24,93.31c-.26,0-.47-.07-.64-.21-.17-.14-.25-.29-.25-.45v-9.02c0-.19.08-.34.25-.46.17-.12.38-.17.64-.17.23,0,.43.06.59.17.16.12.24.27.24.46v.89c.23-.42.59-.8,1.09-1.14.49-.34,1.1-.51,1.83-.51s1.33.19,1.91.58c.58.38,1.04.89,1.39,1.51.35.62.52,1.32.52,2.09v5.61c0,.22-.09.38-.28.49-.19.11-.4.16-.63.16-.22,0-.42-.05-.61-.16-.19-.11-.28-.27-.28-.49v-5.61c0-.42-.11-.83-.34-1.22-.22-.39-.53-.71-.9-.96-.38-.25-.79-.37-1.24-.37-.39,0-.77.11-1.13.32-.36.21-.66.5-.89.87-.23.37-.35.82-.35,1.36v5.61c0,.16-.09.31-.27.45-.18.14-.4.21-.64.21"></path><path class="cls-1" d="m173.36,93.31c-1.17,0-2.07-.26-2.68-.78-.62-.52-.92-1.35-.92-2.5v-11.19c0-.19.09-.34.28-.46.19-.12.39-.17.61-.17.23,0,.44.06.63.17.19.12.28.27.28.46v4.17h2.74c.17,0,.31.07.4.22.09.14.14.31.14.5s-.05.35-.14.49c-.09.14-.23.21-.4.21h-2.74v5.61c0,.62.13,1.06.4,1.32.27.25.74.38,1.4.38h.67c.26,0,.46.08.59.24.13.16.2.34.2.54s-.07.39-.2.55c-.13.17-.33.25-.59.25h-.67Z"></path><path class="cls-1" d="m179.88,92.03c.42,0,.83-.12,1.23-.35.4-.23.73-.52,1-.87.27-.35.4-.68.4-1v-1.13h-.76c-.61,0-1.18.04-1.73.11-.54.07-.98.23-1.32.47-.33.24-.5.62-.5,1.14,0,.56.16.98.48,1.24.32.26.72.39,1.2.39m-.56,1.46c-.81,0-1.5-.24-2.08-.71-.57-.47-.86-1.2-.86-2.18,0-.8.22-1.42.65-1.86.43-.44,1.03-.75,1.79-.91.76-.17,1.64-.25,2.64-.25h1.04v-.46c0-.43-.08-.86-.24-1.27-.16-.41-.41-.75-.75-1.02-.34-.27-.81-.4-1.4-.4-.51,0-.91.05-1.21.15-.3.1-.53.21-.71.32-.17.11-.33.16-.46.16-.22,0-.38-.1-.5-.32-.12-.21-.17-.41-.17-.6,0-.23.16-.44.48-.63.32-.19.72-.34,1.2-.46.48-.12.95-.17,1.41-.17,1.01,0,1.83.2,2.43.61.61.41,1.05.93,1.32,1.56.27.64.4,1.32.4,2.04v5.56c0,.17-.08.33-.25.46-.17.13-.38.2-.64.2-.23,0-.43-.07-.59-.2-.16-.13-.24-.28-.24-.46v-.87c-.38.43-.83.83-1.37,1.17-.54.35-1.17.52-1.91.52"></path><path class="cls-1" d="m191.6,91.85c.45,0,.86-.12,1.24-.37.38-.25.68-.57.9-.98.22-.41.34-.82.34-1.24v-2.22c0-.42-.11-.83-.34-1.22s-.53-.71-.9-.96c-.38-.25-.8-.37-1.26-.37-.39,0-.78.11-1.15.32-.38.21-.68.5-.92.87-.24.37-.36.82-.36,1.36v2.8c0,.19.11.44.33.76.22.32.51.6.89.86.38.25.79.38,1.24.38m.43,1.63c-.67,0-1.27-.17-1.81-.51-.54-.34-.93-.74-1.16-1.18v.87c0,.16-.08.31-.24.45-.16.14-.36.21-.61.21s-.45-.07-.62-.21c-.17-.14-.25-.29-.25-.45v-15.24c0-.19.08-.34.25-.46.17-.12.37-.17.62-.17.26,0,.48.06.66.17.18.12.27.27.27.46v7.11c.23-.42.59-.8,1.08-1.14.49-.34,1.08-.51,1.77-.51s1.36.19,1.95.58c.59.38,1.06.89,1.41,1.51.35.62.53,1.32.53,2.09v2.22c0,.72-.18,1.41-.53,2.05-.36.65-.82,1.17-1.4,1.56-.58.4-1.22.6-1.91.6"></path><path class="cls-1" d="m199.49,93.31c-.26,0-.47-.07-.64-.21-.17-.14-.25-.29-.25-.45v-9.02c0-.19.08-.34.25-.46.17-.12.38-.17.64-.17.25,0,.46.06.64.17.18.12.27.27.27.46v9.02c0,.16-.09.31-.27.45-.18.14-.4.21-.64.21m0-13.13c-.3,0-.57-.11-.79-.32-.22-.21-.34-.45-.34-.73s.11-.51.34-.72c.22-.2.49-.3.79-.3s.58.1.79.3c.21.2.32.44.32.72s-.11.52-.32.73c-.21.21-.47.32-.79.32"></path><path class="cls-1" d="m204.57,93.31c-.26,0-.47-.07-.64-.21-.17-.14-.25-.29-.25-.45v-15.24c0-.19.08-.34.25-.46.17-.12.38-.17.64-.17.25,0,.46.06.64.17.18.12.27.27.27.46v15.24c0,.16-.09.31-.27.45-.18.14-.4.21-.64.21"></path><path class="cls-1" d="m209.68,93.31c-.26,0-.47-.07-.64-.21-.17-.14-.25-.29-.25-.45v-9.02c0-.19.08-.34.25-.46.17-.12.38-.17.64-.17.25,0,.46.06.64.17.18.12.27.27.27.46v9.02c0,.16-.09.31-.27.45-.18.14-.4.21-.64.21m0-13.13c-.3,0-.57-.11-.79-.32-.22-.21-.34-.45-.34-.73s.11-.51.34-.72c.22-.2.49-.3.79-.3s.58.1.79.3c.21.2.32.44.32.72s-.11.52-.32.73c-.21.21-.47.32-.79.32"></path><path class="cls-1" d="m217.57,91.85c.46,0,.88-.13,1.25-.38s.66-.54.88-.86c.22-.32.33-.57.33-.76v-2.8c0-.54-.12-.99-.36-1.36-.24-.37-.55-.66-.92-.87-.38-.21-.76-.32-1.15-.32-.46,0-.88.12-1.26.37-.38.25-.68.56-.9.96s-.34.8-.34,1.22v2.22c0,.42.11.83.34,1.24.22.41.53.73.9.98.38.25.79.37,1.24.37m-.43,1.63c-.68,0-1.31-.2-1.9-.6-.59-.4-1.06-.92-1.41-1.56-.36-.64-.53-1.33-.53-2.05v-2.22c0-.77.18-1.46.53-2.09.35-.62.83-1.13,1.41-1.51.59-.38,1.24-.58,1.95-.58s1.29.17,1.77.51c.49.34.84.72,1.08,1.14v-7.11c0-.19.09-.34.27-.46.18-.12.4-.17.66-.17s.47.06.63.17c.16.12.24.27.24.46v15.24c0,.16-.08.31-.24.45-.16.14-.37.21-.63.21-.23,0-.43-.07-.6-.21-.17-.14-.25-.29-.25-.45v-.87c-.22.45-.6.84-1.15,1.18-.55.34-1.16.51-1.83.51"></path><path class="cls-1" d="m227.79,92.03c.42,0,.83-.12,1.23-.35.4-.23.73-.52,1-.87.27-.35.4-.68.4-1v-1.13h-.76c-.61,0-1.18.04-1.73.11-.54.07-.98.23-1.32.47-.33.24-.5.62-.5,1.14,0,.56.16.98.48,1.24.32.26.72.39,1.2.39m-.57,1.46c-.81,0-1.5-.24-2.08-.71-.57-.47-.86-1.2-.86-2.18,0-.8.22-1.42.65-1.86.43-.44,1.03-.75,1.79-.91.76-.17,1.64-.25,2.64-.25h1.04v-.46c0-.43-.08-.86-.24-1.27-.16-.41-.41-.75-.75-1.02-.34-.27-.81-.4-1.4-.4-.51,0-.91.05-1.21.15-.3.1-.53.21-.71.32-.17.11-.33.16-.46.16-.22,0-.38-.1-.5-.32-.12-.21-.17-.41-.17-.6,0-.23.16-.44.48-.63.32-.19.72-.34,1.2-.46.48-.12.95-.17,1.41-.17,1.01,0,1.83.2,2.43.61.61.41,1.05.93,1.32,1.56.27.64.4,1.32.4,2.04v5.56c0,.17-.08.33-.25.46-.17.13-.38.2-.64.2-.23,0-.43-.07-.59-.2-.16-.13-.24-.28-.24-.46v-.87c-.38.43-.83.83-1.37,1.17-.54.35-1.17.52-1.91.52"></path><path class="cls-1" d="m239.11,91.85c.46,0,.88-.13,1.25-.38s.66-.54.88-.86c.22-.32.33-.57.33-.76v-2.8c0-.54-.12-.99-.36-1.36-.24-.37-.55-.66-.92-.87-.38-.21-.76-.32-1.15-.32-.46,0-.88.12-1.26.37-.38.25-.68.56-.9.96-.22.39-.34.8-.34,1.22v2.22c0,.42.11.83.34,1.24.22.41.53.73.9.98.38.25.79.37,1.24.37m-.43,1.63c-.68,0-1.31-.2-1.9-.6-.59-.4-1.06-.92-1.41-1.56-.36-.64-.53-1.33-.53-2.05v-2.22c0-.77.18-1.46.53-2.09.35-.62.83-1.13,1.41-1.51.59-.38,1.23-.58,1.95-.58s1.29.17,1.77.51c.49.34.84.72,1.08,1.14v-7.11c0-.19.09-.34.27-.46.18-.12.4-.17.66-.17s.47.06.63.17c.16.12.24.27.24.46v15.24c0,.16-.08.31-.24.45-.16.14-.37.21-.63.21-.23,0-.43-.07-.6-.21-.17-.14-.25-.29-.25-.45v-.87c-.22.45-.6.84-1.15,1.18-.55.34-1.16.51-1.83.51"></path><path class="cls-1" d="m247.91,87.46h4.02c.39,0,.65-.05.77-.14.12-.09.18-.28.18-.55,0-.43-.11-.84-.32-1.21-.21-.37-.5-.67-.88-.9-.38-.23-.8-.35-1.28-.35-.45,0-.86.11-1.24.32-.38.21-.68.5-.91.86-.23.36-.35.76-.35,1.2v.78Zm3.04,6.02c-.94,0-1.78-.18-2.5-.53-.72-.36-1.3-.85-1.72-1.48-.42-.63-.63-1.37-.63-2.21v-2.28c0-.74.2-1.42.6-2.04.4-.62.92-1.12,1.58-1.5.65-.38,1.37-.56,2.15-.56s1.45.17,2.08.52c.63.35,1.14.82,1.52,1.41.38.59.58,1.28.58,2.06,0,.58-.09,1-.28,1.25-.19.25-.43.41-.72.47-.29.06-.59.09-.91.09h-4.78v.65c0,.81.29,1.45.87,1.92.58.47,1.33.71,2.24.71.54,0,.96-.07,1.28-.22.32-.14.58-.29.78-.42.2-.14.38-.21.54-.21s.29.05.4.14c.11.09.19.21.25.34.06.13.09.25.09.35,0,.19-.14.4-.41.64-.28.24-.67.45-1.18.63-.51.18-1.12.27-1.81.27"></path><path class="cls-1" d="m263.21,93.31c-.22,0-.42-.05-.62-.16-.2-.11-.29-.27-.29-.49v-14.34c0-.33.1-.56.29-.7.2-.13.4-.2.62-.2.23,0,.43.04.6.13.17.09.32.21.46.38.14.17.27.38.4.64l3.43,6.54,3.43-6.54c.14-.26.29-.47.42-.64.14-.17.29-.29.46-.38.17-.09.36-.13.58-.13.25,0,.46.07.64.2.18.13.27.36.27.7v14.34c0,.22-.09.38-.28.49-.19.11-.4.16-.63.16s-.44-.05-.63-.16c-.19-.11-.28-.27-.28-.49v-11.41l-3.3,6.17c-.1.17-.21.3-.33.38-.12.08-.24.12-.37.12-.1,0-.21-.04-.34-.11-.12-.07-.24-.2-.34-.39l-3.28-6.26v11.5c0,.22-.09.38-.28.49-.19.11-.4.16-.63.16"></path><path class="cls-1" d="m280.27,80.62c-.17,0-.33-.08-.46-.24-.13-.16-.2-.33-.2-.5,0-.23.09-.39.28-.48l2.54-1.35c.09-.03.16-.04.22-.04.19,0,.34.08.45.23.11.15.16.32.16.51,0,.23-.1.41-.3.52l-2.46,1.26s-.08.03-.12.05c-.04.02-.08.03-.12.03m-1.65,6.85h4.02c.39,0,.65-.05.77-.14.12-.09.18-.28.18-.55,0-.43-.11-.84-.32-1.21-.21-.37-.5-.67-.88-.9-.38-.23-.8-.35-1.28-.35-.45,0-.86.11-1.24.32-.38.21-.68.5-.91.86-.23.36-.35.76-.35,1.2v.78Zm3.04,6.02c-.94,0-1.78-.18-2.5-.53-.72-.36-1.3-.85-1.72-1.48-.42-.63-.63-1.37-.63-2.21v-2.28c0-.74.2-1.42.6-2.04.4-.62.92-1.12,1.58-1.5.65-.38,1.37-.56,2.15-.56s1.45.17,2.08.52c.63.35,1.14.82,1.52,1.41.38.59.58,1.28.58,2.06,0,.58-.09,1-.28,1.25-.19.25-.43.41-.72.47-.29.06-.59.09-.91.09h-4.78v.65c0,.81.29,1.45.87,1.92.58.47,1.33.71,2.24.71.54,0,.96-.07,1.28-.22.32-.14.58-.29.78-.42.2-.14.38-.21.54-.21s.29.05.4.14c.11.09.19.21.25.34.06.13.09.25.09.35,0,.19-.14.4-.41.64-.28.24-.67.45-1.18.63-.51.18-1.12.27-1.81.27"></path><path class="cls-1" d="m291.75,91.85c.46,0,.88-.13,1.25-.38.37-.25.66-.54.88-.86.22-.32.33-.57.33-.76v-2.8c0-.54-.12-.99-.36-1.36-.24-.37-.55-.66-.92-.87-.38-.21-.76-.32-1.15-.32-.46,0-.88.12-1.26.37-.38.25-.68.56-.9.96-.22.39-.34.8-.34,1.22v2.22c0,.42.11.83.34,1.24.22.41.53.73.9.98.38.25.79.37,1.24.37m-.43,1.63c-.68,0-1.31-.2-1.9-.6-.59-.4-1.06-.92-1.41-1.56-.36-.64-.53-1.33-.53-2.05v-2.22c0-.77.18-1.46.53-2.09.35-.62.83-1.13,1.41-1.51.59-.38,1.24-.58,1.95-.58s1.29.17,1.77.51c.49.34.84.72,1.08,1.14v-7.11c0-.19.09-.34.27-.46.18-.12.4-.17.66-.17s.47.06.63.17c.16.12.24.27.24.46v15.24c0,.16-.08.31-.24.45-.16.14-.37.21-.63.21-.23,0-.43-.07-.6-.21-.17-.14-.25-.29-.25-.45v-.87c-.22.45-.6.84-1.15,1.18-.55.34-1.16.51-1.83.51"></path><path class="cls-1" d="m300.03,93.31c-.26,0-.47-.07-.64-.21-.17-.14-.25-.29-.25-.45v-9.02c0-.19.08-.34.25-.46.17-.12.38-.17.64-.17.25,0,.46.06.64.17.18.12.27.27.27.46v9.02c0,.16-.09.31-.27.45-.18.14-.4.21-.64.21m0-13.13c-.3,0-.57-.11-.79-.32-.22-.21-.34-.45-.34-.73s.11-.51.34-.72c.22-.2.49-.3.79-.3s.58.1.79.3c.21.2.32.44.32.72s-.11.52-.32.73c-.21.21-.47.32-.79.32"></path><path class="cls-1" d="m308.03,93.48c-1,0-1.82-.19-2.47-.56-.65-.38-1.12-.88-1.43-1.51-.31-.63-.47-1.34-.47-2.14v-2.17c0-.78.16-1.49.47-2.13.31-.64.79-1.14,1.43-1.52.64-.38,1.46-.56,2.45-.56.64,0,1.2.08,1.67.24.48.16.85.36,1.11.59.26.23.39.46.39.67,0,.12-.03.24-.1.38-.07.14-.15.26-.26.36-.11.1-.24.15-.38.15s-.3-.07-.47-.2c-.17-.13-.39-.26-.67-.38-.28-.12-.68-.18-1.18-.18-.88,0-1.55.23-1.99.7-.44.46-.66,1.09-.66,1.89v2.17c0,.8.22,1.43.66,1.89.44.46,1.11.7,2.01.7.52,0,.93-.07,1.22-.21.29-.14.52-.27.68-.39.17-.12.33-.18.49-.18s.3.05.41.14c.12.09.21.21.27.34.07.13.1.26.1.39,0,.22-.14.45-.41.68-.28.24-.66.44-1.15.61-.49.17-1.06.25-1.72.25"></path><path class="cls-1" d="m316.48,92.03c.42,0,.83-.12,1.23-.35.4-.23.73-.52,1-.87.27-.35.4-.68.4-1v-1.13h-.76c-.61,0-1.18.04-1.73.11-.54.07-.98.23-1.32.47-.33.24-.5.62-.5,1.14,0,.56.16.98.48,1.24.32.26.72.39,1.2.39m-.57,1.46c-.81,0-1.5-.24-2.08-.71-.57-.47-.86-1.2-.86-2.18,0-.8.22-1.42.65-1.86.43-.44,1.03-.75,1.79-.91.76-.17,1.64-.25,2.64-.25h1.04v-.46c0-.43-.08-.86-.24-1.27-.16-.41-.41-.75-.75-1.02-.34-.27-.81-.4-1.4-.4-.51,0-.91.05-1.21.15-.3.1-.53.21-.71.32-.17.11-.33.16-.46.16-.22,0-.38-.1-.5-.32-.12-.21-.17-.41-.17-.6,0-.23.16-.44.48-.63.32-.19.72-.34,1.2-.46.48-.12.95-.17,1.41-.17,1.01,0,1.83.2,2.43.61.61.41,1.05.93,1.31,1.56.27.64.4,1.32.4,2.04v5.56c0,.17-.08.33-.25.46-.17.13-.38.2-.64.2-.23,0-.43-.07-.59-.2-.16-.13-.24-.28-.24-.46v-.87c-.38.43-.83.83-1.37,1.17-.54.35-1.17.52-1.91.52"></path></g><path class="cls-1" d="m92.66,23.55c-.65.76-1.37,1.47-2.06,2.16l-.47.46c-3.35,3.35-6.7,6.7-10.06,10.05l-1.65,1.65c-.88.87-1.93.9-2.75.11-.4-.38-.61-.83-.61-1.32,0-.36.11-.91.66-1.46,3.24-3.24,6.48-6.48,9.72-9.72.34-.33.68-.67,1.01-1.01.86-.87,1.74-1.76,2.66-2.61-2.1-2.1-4.19-4.2-6.29-6.31l-3.78-3.8c-1.91-1.91-3.86-3.86-5.96-5.95-.5-.49-1.03-1.01-1.67-1.62-2.15,2.13-4.35,4.32-6.15,6.13l-3.96,3.94c-2.8,2.8-5.6,5.6-8.4,8.39-.45.45-.97.68-1.5.68-.85,0-1.56-.6-1.84-1.57-.1-.34-.19-.68-.29-1.01l-.02-.08c-.49-1.73-1-3.53-1.88-5.09-2.3-4.09-5.59-7.04-9.78-8.76-2.49-1.03-5.1-1.55-7.76-1.55-7.68,0-14.51,4.33-17.84,11.29-3.47,7.27-2.68,14.34,2.33,21.01,2.39,3.18,5.64,5.44,9.66,6.69,1.98.62,4.22.91,7.04.91.45,0,.93,0,1.45-.02l4.99-.14c2.12-.06,4.21-.12,6.3-.17l3.69-.1c3.56-.1,7.19-.21,10.77-.28l1.09-.02c1.03-.03,2.1-.05,3.16-.05,1.17,0,2.19.03,3.13.09,5.37.37,10.17,2.52,14.26,6.39,3.59,3.4,5.93,7.52,6.93,12.25,2.46,11.52-4.05,23.24-15.14,27.25-2.66.96-5.42,1.45-8.2,1.45-7.63,0-14.62-3.62-19.17-9.94-1.45-2.01-2.57-4.22-3.32-6.57-4.54,4.57-9.5,9.57-15.55,15.64-.37.37-.78.75-1.32,1.23-.78.68-1.45.98-2.16.98s-1.38-.31-2.12-.98c-.87-.8-1.7-1.63-2.5-2.44-.25-.26-.51-.52-.77-.78l-4.68-4.68c-2.51-2.5-5.09-5.09-7.64-7.62-.55-.55-1.14-1.1-1.71-1.62-.4-.37-.77-.71-1.14-1.06-.27-.26-.48-.55-.66-.79-.92-1.26-.95-2.34-.09-3.59.44-.63.96-1.18,1.41-1.63,3.57-3.53,7.14-7.05,10.71-10.58l3.3-3.26c.09-.1.17-.18.26-.26.82-.73,1.95-.71,2.68.04.78.8.76,1.88-.04,2.69-1.04,1.05-2.09,2.09-3.14,3.14l-3.62,3.62c-2.2,2.2-4.41,4.4-6.6,6.6-.46.46-.9.93-1.29,1.37l.34.34c3.1,3.12,6.31,6.36,9.49,9.51,1.4,1.39,2.84,2.79,4.23,4.14l.08.07c.95.93,1.9,1.85,2.85,2.78.22.22.41.45.59.67.02.01.03.03.04.04,1.64-1.6,3.38-3.29,5.11-5.02,3.71-3.69,7.46-7.45,11.09-11.09l2.24-2.23c.28-.29.82-.82,1.64-.82.18,0,.37.03.56.08,1.07.32,1.26,1.25,1.36,1.76v.05c1.2,5.73,4.22,10.18,8.98,13.22,5.56,3.56,11.47,4.24,17.32,2.01,7.76-2.96,12.2-8.64,13.19-16.86,1.06-8.81-4.59-17.7-13.15-20.69-2.25-.78-4.69-1.14-7.69-1.14-.35,0-.72,0-1.09.01-2.1.06-4.19.12-6.28.18l-7.4.18c-3.12.07-6.24.15-9.37.21-.93.02-1.87.05-2.79.08-1.53.05-3.11.11-4.68.11-.73,0-1.41-.02-2.07-.04-6.69-.24-12.4-3.01-16.97-8.24-2.74-3.13-4.53-6.8-5.34-10.9-1.88-9.57,2.4-19.44,10.65-24.55C23.66,1.19,30.62.36,37.6,2.76c7.11,2.45,11.96,7.25,14.44,14.29l.13.37c.06.14.11.29.16.44.95-.95,1.89-1.89,2.84-2.84l.34-.34c.64-.63,1.27-1.26,1.9-1.9l10.85-10.88c.32-.33.66-.64.89-.84,1.6-1.45,3.11-1.41,4.64.1,1.09,1.08,2.17,2.16,3.25,3.24l.21.21c1.18,1.18,2.39,2.39,3.6,3.58,1.77,1.76,3.55,3.51,5.33,5.26l.38.37c1.61,1.58,3.21,3.15,4.81,4.73.45.45.9.96,1.32,1.51.9,1.17.89,2.41-.03,3.49Z"></path></g></g></svg>