<svg width="1947" height="780" viewBox="0 0 1947 780" fill="none" xmlns="http://www.w3.org/2000/svg">
<g clip-path="url(#clip0_70_54)">
<path d="M1307.78 519.316C1250.63 519.316 1211.44 472.94 1211.44 413.704C1211.44 349.24 1252.4 307.064 1307.78 307.064C1351.44 307.064 1406.81 338.095 1406.81 413.704C1406.81 489.313 1352.45 519.316 1307.78 519.316ZM1330.96 202.739C1269.77 202.739 1224.08 231.799 1204.44 266.689V211.825H1099.42V780.002H1204.44V570.665C1223.49 599.296 1260.66 625.786 1322.27 625.786C1415.24 625.786 1511.83 532.174 1511.83 410.877C1511.83 289.577 1448.45 202.653 1330.96 202.653V202.739Z" fill="#00122F"/>
<path d="M1831.78 211.996L1723.31 472.338L1626.55 211.996H1511.92L1659.17 614.04L1588.11 780.002H1710.24L1947 211.996H1831.78Z" fill="#00122F"/>
<path d="M101.227 552.06L180.372 476.968C135.953 438.733 107.717 381.642 107.717 317.95C107.717 203.079 199.504 109.64 312.362 109.64C380.045 109.64 440.139 143.33 477.395 195.021L556.538 119.927C499.225 46.8907 411.06 0 312.362 0C140.083 0 0 142.644 0 318.035C0 410.616 39.0242 494.025 101.227 552.147V552.06Z" fill="#00122F"/>
<path d="M1025.76 211.996H920.822V429.906C920.822 483.056 892.249 523.174 837.631 523.174C783.015 523.174 757.643 478.083 757.643 428.278V212.082H652.708V450.995C652.708 548.89 710.529 625.871 818.414 625.871C864.94 625.871 906.156 608.211 925.711 571.693V616.526H1025.76V211.996Z" fill="#00122F"/>
<path d="M276.204 301.319V406.502H411.145L188.294 616.525H337.648L481.271 484.083V616.525H589.242V301.319H276.204Z" fill="#00122F"/>
</g>
<defs>
<clipPath id="clip0_70_54">
<rect width="1947" height="780" fill="white"/>
</clipPath>
</defs>
</svg>
