<?xml version="1.0" encoding="UTF-8"?><svg id="Camada_2" xmlns="http://www.w3.org/2000/svg" viewBox="0 0 831.77 185.79"><defs><style>.cls-1{fill:#4a86e8;}.cls-2{fill:none;}</style></defs><g id="Camada_1-2"><g><path class="cls-1" d="M200.5,123.27c-2.49,0-4.63-.89-6.41-2.66-1.77-1.77-2.67-3.91-2.67-6.41V46.54h-15.97V114.2c0,6.94,2.44,12.84,7.32,17.72,4.89,4.89,10.8,7.33,17.73,7.33h97.94v-15.98h-97.94Z"/><path class="cls-1" d="M425.37,53.95c-4.03-4.94-8.92-7.41-14.65-7.41h-80.98c-5.73,0-10.61,2.47-14.64,7.41-4.05,4.89-6.06,10.77-6.06,17.64v42.61c0,6.94,2.01,12.84,6.06,17.72,4.03,4.89,8.91,7.33,14.64,7.33h80.98c5.73,0,10.62-2.44,14.65-7.33,4.04-4.88,6.05-10.78,6.05-17.72v-42.61c0-6.87-2.01-12.75-6.05-17.64Zm-7.16,60.25c0,2.5-.73,4.64-2.2,6.41s-3.23,2.66-5.29,2.66h-80.98c-2.06,0-3.83-.89-5.29-2.66-1.47-1.77-2.2-3.91-2.2-6.41v-42.61c0-2.49,.73-4.63,2.2-6.4,1.46-1.78,3.23-2.66,5.29-2.66h80.98c2.06,0,3.82,.88,5.29,2.66,1.47,1.77,2.2,3.91,2.2,6.4v42.61Z"/><path class="cls-1" d="M565.32,71.76c0-6.93-1.99-12.84-5.96-17.73-4.02-4.87-8.82-7.32-14.41-7.32h-95.3c-1.81,0-3.33,.78-4.6,2.34-1.26,1.55-1.89,3.43-1.89,5.65v76.55c0,2.23,.63,4.12,1.89,5.67,1.27,1.55,2.79,2.33,4.6,2.33h95.3c5.59,0,10.39-2.44,14.41-7.33,3.97-4.88,5.96-10.78,5.96-17.72v-4.16c0-6.72-1.89-12.45-5.68-17.22,3.79-4.83,5.68-10.63,5.68-17.4v-3.66Zm-11.38,46.51c0,2.73-1.8,4.95-4.03,4.95h-4.14c-.27,.04-.54,.05-.82,.05h-88.8v-22.22h.06v-.82h16.8v.04c.71-.03,1.17-.04,1.29-.04h75.61c2.23,0,4.03,2.21,4.03,4.95v13.09Zm0-38.73c0,2.74-1.8,4.95-4.03,4.95h-93.76v-21.8h88.8c.17,0,.34,.01,.5,.02h4.46c2.23,0,4.03,2.22,4.03,4.95v11.88Z"/><path class="cls-1" d="M693.1,53.95c-4.07-4.94-9-7.41-14.79-7.41h-81.75c-5.78,0-10.71,2.47-14.78,7.41-4.08,4.89-6.11,10.77-6.11,17.64v42.61c0,6.94,2.03,12.84,6.11,17.72,4.07,4.89,9,7.33,14.78,7.33h81.75c5.79,0,10.72-2.44,14.79-7.33,4.08-4.88,6.11-10.78,6.11-17.72v-42.61c0-6.87-2.03-12.75-6.11-17.64Zm-7.22,60.25c0,2.5-.74,4.64-2.22,6.41-1.49,1.77-3.27,2.66-5.35,2.66h-81.75c-2.08,0-3.85-.89-5.34-2.66-1.48-1.77-2.22-3.91-2.22-6.41v-42.61c0-2.49,.74-4.63,2.22-6.4,1.49-1.78,3.26-2.66,5.34-2.66h81.75c2.08,0,3.86,.88,5.35,2.66,1.48,1.77,2.22,3.91,2.22,6.4v42.61Z"/><path class="cls-1" d="M711.67,46.63v92.62h15.1V46.63h-15.1Z"/><g><path d="M36.96,.09c2.36,8.8,4.72,17.63,6.96,26.46-8.86,16.54-16.11,34.05-26.46,49.73C22.92,50.65,30.95,25.6,36.96,.09Z"/><path d="M84.73,0c8.48,26.89,17.08,53.81,23.32,81.3-10.3-17.86-19.21-36.53-28.21-55.08,2.3-8.6,3.8-17.4,4.89-26.23Z"/><path d="M74.23,123.73c11.53-9.46,23.73-18.21,36.78-25.45-5.81,8.86-12.94,16.74-18.92,25.51-5.95,0-11.91,.03-17.86-.06Z"/><g><path d="M11.53,97.7c13.11,8,25.63,16.91,37.96,25.97-6.36,.09-12.71,.09-19.07-.06-6.15-8.74-13.06-16.94-18.9-25.91Z"/><path d="M0,131.43c15.1,6.79,29.71,14.55,44.32,22.38-1.58,12.48,8.31,20.51,16.82,27.64,9.29-6.67,18.09-14.98,18-27.32,13.29-8.51,27.75-15.1,42.16-21.43-18.06,15.65-35.14,32.38-52.95,48.29-2.47,1.61-4.57,4.86-7.71,4.8-4.03-1.73-7.05-5.03-10.27-7.88-16.42-15.88-34.05-30.51-50.39-46.48Z"/></g></g><line class="cls-2" x1="473.05" y1="92.89" x2="472.9" y2="92.9"/><rect class="cls-1" x="715.96" y="84.9" width="5.88" height="15.99"/><polygon class="cls-1" points="831.77 46.62 831.77 139.25 815.79 139.25 815.79 100.89 743.76 100.89 743.76 84.9 815.79 84.9 815.79 46.62 831.77 46.62"/></g></g></svg>