<?xml version="1.0" encoding="UTF-8"?><svg id="Camada_2" xmlns="http://www.w3.org/2000/svg" viewBox="0 0 831.77 185.79"><defs><style>.cls-1{fill:#fff;}.cls-2{fill:#4a86e8;}.cls-3{fill:none;}</style></defs><g id="Camada_1-2"><g><path class="cls-2" d="M200.51,123.26c-2.5,0-4.64-.88-6.42-2.66-1.76-1.77-2.66-3.91-2.66-6.4V46.54h-15.97V114.2c0,6.93,2.44,12.84,7.32,17.71,4.89,4.89,10.79,7.34,17.73,7.34h97.94v-15.99h-97.94Z"/><path class="cls-2" d="M425.37,53.94c-4.03-4.93-8.91-7.4-14.64-7.4h-80.98c-5.73,0-10.62,2.47-14.65,7.4-4.04,4.89-6.05,10.77-6.05,17.65v42.61c0,6.93,2.01,12.84,6.05,17.71,4.03,4.89,8.92,7.34,14.65,7.34h80.98c5.73,0,10.61-2.45,14.64-7.34,4.05-4.87,6.06-10.78,6.06-17.71v-42.61c0-6.88-2.01-12.76-6.06-17.65Zm-7.15,60.26c0,2.49-.73,4.63-2.2,6.4-1.47,1.78-3.23,2.66-5.29,2.66h-80.98c-2.06,0-3.83-.88-5.29-2.66-1.47-1.77-2.21-3.91-2.21-6.4v-42.61c0-2.5,.74-4.64,2.21-6.4,1.46-1.78,3.23-2.67,5.29-2.67h80.98c2.06,0,3.82,.89,5.29,2.67,1.47,1.76,2.2,3.9,2.2,6.4v42.61Z"/><path class="cls-2" d="M565.32,71.76c0-6.94-1.99-12.84-5.95-17.73-4.02-4.88-8.82-7.32-14.41-7.32h-95.3c-1.81,0-3.34,.77-4.61,2.33-1.26,1.55-1.89,3.44-1.89,5.65v76.56c0,2.23,.63,4.11,1.89,5.66,1.27,1.55,2.8,2.34,4.61,2.34h95.3c5.59,0,10.39-2.45,14.41-7.34,3.96-4.87,5.95-10.78,5.95-17.71v-4.17c0-6.71-1.89-12.45-5.68-17.22,3.79-4.83,5.68-10.62,5.68-17.4v-3.65Zm-11.38,46.5c0,2.74-1.8,4.95-4.02,4.95h-4.15c-.26,.04-.54,.05-.81,.05h-88.8v-22.22h.06v-.82h16.8v.05c.71-.04,1.17-.05,1.29-.05h75.61c2.22,0,4.02,2.21,4.02,4.95v13.09Zm0-38.72c0,2.73-1.8,4.95-4.02,4.95h-93.76v-21.81h88.8c.16,0,.33,.01,.5,.02h4.46c2.22,0,4.02,2.22,4.02,4.95v11.89Z"/><path class="cls-2" d="M693.11,53.94c-4.07-4.93-9-7.4-14.79-7.4h-81.75c-5.79,0-10.72,2.47-14.79,7.4-4.08,4.89-6.11,10.77-6.11,17.65v42.61c0,6.93,2.03,12.84,6.11,17.71,4.07,4.89,9,7.34,14.79,7.34h81.75c5.79,0,10.72-2.45,14.79-7.34,4.08-4.87,6.11-10.78,6.11-17.71v-42.61c0-6.88-2.03-12.76-6.11-17.65Zm-7.23,60.26c0,2.49-.73,4.63-2.22,6.4-1.48,1.78-3.26,2.66-5.34,2.66h-81.75c-2.08,0-3.86-.88-5.34-2.66-1.49-1.77-2.22-3.91-2.22-6.4v-42.61c0-2.5,.73-4.64,2.22-6.4,1.48-1.78,3.26-2.67,5.34-2.67h81.75c2.08,0,3.86,.89,5.34,2.67,1.49,1.76,2.22,3.9,2.22,6.4v42.61Z"/><path class="cls-2" d="M711.68,46.62v92.63h15.1V46.62h-15.1Z"/><g><path class="cls-1" d="M36.96,.09c2.36,8.8,4.72,17.63,6.96,26.46-8.86,16.54-16.11,34.05-26.46,49.73C22.92,50.65,30.95,25.6,36.96,.09Z"/><path class="cls-1" d="M84.73,0c8.48,26.89,17.08,53.81,23.32,81.3-10.3-17.86-19.21-36.53-28.21-55.08,2.3-8.6,3.8-17.4,4.89-26.23Z"/><path class="cls-1" d="M74.23,123.73c11.53-9.46,23.73-18.21,36.78-25.45-5.81,8.86-12.94,16.74-18.92,25.51-5.95,0-11.91,.03-17.86-.06Z"/><g><path class="cls-1" d="M11.53,97.7c13.11,8,25.63,16.91,37.96,25.97-6.36,.09-12.71,.09-19.07-.06-6.15-8.74-13.06-16.94-18.9-25.91Z"/><path class="cls-1" d="M0,131.43c15.1,6.79,29.71,14.55,44.32,22.38-1.58,12.48,8.31,20.51,16.82,27.64,9.29-6.67,18.09-14.98,18-27.32,13.29-8.51,27.75-15.1,42.16-21.43-18.06,15.65-35.14,32.38-52.95,48.29-2.47,1.61-4.57,4.86-7.71,4.8-4.03-1.73-7.05-5.03-10.27-7.88-16.42-15.88-34.05-30.51-50.39-46.48Z"/></g></g><line class="cls-3" x1="473.05" y1="92.89" x2="472.9" y2="92.9"/><rect class="cls-2" x="715.96" y="84.9" width="5.88" height="15.99"/><polygon class="cls-2" points="831.77 46.61 831.77 139.25 815.8 139.25 815.8 100.89 744.83 100.89 744.83 84.9 815.8 84.9 815.8 46.61 831.77 46.61"/></g></g></svg>